<svg xmlns="http://www.w3.org/2000/svg" viewBox="844.868 385.347 229.307 229.307">
  <defs>
    <style>
      .cls-1 {
        fill: #fff;
      }

      .cls-2, .cls-4 {
        fill: #5d5b79;
      }

      .cls-3, .cls-4 {
        stroke: none;
      }
    </style>
  </defs>
  <g id="Group_4" data-name="Group 4" transform="translate(844.868 385.347)">
    <g id="Path_15" data-name="Path 15" class="cls-1">
      <path class="cls-3" d="M 165.6105346679688 227.806884765625 L 63.69636154174805 227.806884765625 C 55.29924392700195 227.806884765625 47.15409851074219 226.1626281738281 39.48718643188477 222.9197998046875 C 35.80212783813477 221.3611602783203 32.24777221679688 219.431884765625 28.92283248901367 217.1856231689453 C 25.62909698486328 214.9604187011719 22.53177261352539 212.4048919677734 19.71689033508301 209.5899810791016 C 16.90200805664062 206.7751007080078 14.34647941589355 203.6777801513672 12.1212739944458 200.3840637207031 C 9.875008583068848 197.0591278076172 7.945744037628174 193.5047760009766 6.387096881866455 189.8196868896484 C 3.144273519515991 182.1527709960938 1.500008821487427 174.0076599121094 1.500008821487427 165.6105346679688 L 1.500008821487427 63.69636154174805 C 1.500008821487427 55.29924392700195 3.144273519515991 47.15409851074219 6.387096881866455 39.48718643188477 C 7.945744037628174 35.80212783813477 9.875008583068848 32.24777221679688 12.1212739944458 28.92283248901367 C 14.34647941589355 25.62909698486328 16.90200805664062 22.53177261352539 19.71689033508301 19.71689033508301 C 22.53177261352539 16.90200805664062 25.62909698486328 14.34647941589355 28.92283248901367 12.1212739944458 C 32.24777221679688 9.875008583068848 35.80212783813477 7.945744037628174 39.48718643188477 6.387096881866455 C 47.15409851074219 3.144273519515991 55.29924392700195 1.500008821487427 63.69636154174805 1.500008821487427 L 165.6105346679688 1.500008821487427 C 174.0076599121094 1.500008821487427 182.1527709960938 3.144273519515991 189.8196868896484 6.387096881866455 C 193.5047760009766 7.945744037628174 197.0591278076172 9.875008583068848 200.3840637207031 12.1212739944458 C 203.6777801513672 14.34647941589355 206.7751007080078 16.90200805664062 209.5899810791016 19.71689033508301 C 212.4048919677734 22.53177261352539 214.9604187011719 25.62909698486328 217.1856231689453 28.92283248901367 C 219.431884765625 32.24777221679688 221.3611602783203 35.80212783813477 222.9197998046875 39.48718643188477 C 226.1626281738281 47.15409851074219 227.806884765625 55.29924392700195 227.806884765625 63.69636154174805 L 227.806884765625 165.6105346679688 C 227.806884765625 174.0076599121094 226.1626281738281 182.1527709960938 222.9197998046875 189.8196868896484 C 221.3611602783203 193.5047760009766 219.431884765625 197.0591278076172 217.1856231689453 200.3840637207031 C 214.9604187011719 203.6777801513672 212.4048919677734 206.7751007080078 209.5899810791016 209.5899810791016 C 206.7751007080078 212.4048919677734 203.6777801513672 214.9604187011719 200.3840637207031 217.1856231689453 C 197.0591278076172 219.431884765625 193.5047760009766 221.3611602783203 189.8196868896484 222.9197998046875 C 182.1527709960938 226.1626281738281 174.0076599121094 227.806884765625 165.6105346679688 227.806884765625 Z"/>
      <path class="cls-4" d="M 165.6105499267578 226.3069152832031 C 173.8058319091797 226.3069152832031 181.7543487548828 224.7025451660156 189.2353820800781 221.538330078125 C 192.8312377929688 220.0173950195312 196.2996673583984 218.134765625 199.5443572998047 215.9427032470703 C 202.7589874267578 213.7709503173828 205.781982421875 211.2767333984375 208.5293579101562 208.5293579101562 C 211.2767333984375 205.781982421875 213.7709503173828 202.7589874267578 215.9427032470703 199.5443572998047 C 218.134765625 196.2996673583984 220.0173950195312 192.8312377929688 221.538330078125 189.2353820800781 C 224.7025451660156 181.7543487548828 226.3069152832031 173.8058319091797 226.3069152832031 165.6105499267578 L 226.3069152832031 63.69635772705078 C 226.3069152832031 55.50107574462891 224.7025451660156 47.55254364013672 221.538330078125 40.0715446472168 C 220.0173950195312 36.47566986083984 218.134765625 33.00723266601562 215.9427032470703 29.76254463195801 C 213.7709503173828 26.54795074462891 211.2767333984375 23.52495002746582 208.5293579101562 20.77757453918457 C 205.781982421875 18.03020095825195 202.7589874267578 15.53598117828369 199.5443572998047 13.36423110961914 C 196.2996673583984 11.17216873168945 192.8312377929688 9.289512634277344 189.2353820800781 7.768606185913086 C 181.7543487548828 4.604387283325195 173.8058319091797 3.000012397766113 165.6105499267578 3.000012397766113 L 63.69635772705078 3.000012397766113 C 55.50107574462891 3.000012397766113 47.55254364013672 4.604387283325195 40.0715446472168 7.768606185913086 C 36.47566986083984 9.289512634277344 33.00723266601562 11.17216873168945 29.76254463195801 13.36423110961914 C 26.54791831970215 15.53598117828369 23.52495002746582 18.03020095825195 20.77757453918457 20.77757453918457 C 18.03020095825195 23.52495002746582 15.53598117828369 26.54791831970215 13.36423110961914 29.76254463195801 C 11.17216873168945 33.00723266601562 9.289512634277344 36.47566986083984 7.768606185913086 40.0715446472168 C 4.604387283325195 47.55254364013672 3.000012397766113 55.50107574462891 3.000012397766113 63.69635772705078 L 3.000012397766113 165.6105499267578 C 3.000012397766113 173.8058319091797 4.604387283325195 181.7543487548828 7.768606185913086 189.2353820800781 C 9.289512634277344 192.8312377929688 11.17216873168945 196.2996673583984 13.36423110961914 199.5443572998047 C 15.53598117828369 202.7589874267578 18.03020095825195 205.781982421875 20.77757453918457 208.5293579101562 C 23.52495002746582 211.2767333984375 26.54795074462891 213.7709503173828 29.76254463195801 215.9427032470703 C 33.00723266601562 218.134765625 36.47566986083984 220.0173950195312 40.0715446472168 221.538330078125 C 47.55254364013672 224.7025451660156 55.50107574462891 226.3069152832031 63.69635772705078 226.3069152832031 L 165.6105499267578 226.3069152832031 M 165.6105499267578 229.3069152832031 L 63.69635772705078 229.3069152832031 C 28.51785659790039 229.3069152832031 1.251220692211064e-05 200.7890472412109 1.251220692211064e-05 165.6105499267578 L 1.251220692211064e-05 63.69635772705078 C 1.251220692211064e-05 28.51785659790039 28.51785659790039 1.251220692211064e-05 63.69635772705078 1.251220692211064e-05 L 165.6105499267578 1.251220692211064e-05 C 200.7890472412109 1.251220692211064e-05 229.3069152832031 28.51785659790039 229.3069152832031 63.69635772705078 L 229.3069152832031 165.6105499267578 C 229.3069152832031 200.7890472412109 200.7890472412109 229.3069152832031 165.6105499267578 229.3069152832031 Z"/>
    </g>
    <g id="Group_1" data-name="Group 1" transform="translate(72.461 45.861)">
      <path id="Union_2" data-name="Union 2" class="cls-2" d="M42.916,137.535a45.928,45.928,0,0,1-11.082-1.544,16.961,16.961,0,0,1-8.993-5.723c-2.18-2.726-3-5.723-1.817-9.084a.548.548,0,0,0,.091-.364c-1.454-1.271-3-2.543-4.451-3.815A56.14,56.14,0,0,1,4.492,100.837c-2-4.178-3.725-8.357-4.269-12.99-.817-6.722.545-12.99,5.268-18.167a28.717,28.717,0,0,1,6.631-5.269,6.206,6.206,0,0,1,1-.636l.364-.363c-.727-2.09-1.363-4.269-2.09-6.449-2-5.723-4.178-11.536-6.176-17.35a67.451,67.451,0,0,1-2.726-9.538C1.313,23.9,2.584,18.266,6.944,13.452A15.247,15.247,0,0,1,14.029,9c5.45-1.271,9.9,1.635,11.537,6.54.726,2.362,1.271,4.724,2.089,7.086,1.181,3.361,2.362,6.722,3.634,10.083.726,2.09,1.544,4.088,2.361,6.087a5.892,5.892,0,0,0,.364.818A5.241,5.241,0,0,0,34.2,38.7c.727-7.358,1.363-14.806,2.09-22.164A18.613,18.613,0,0,1,51.636.19,8.887,8.887,0,0,1,53.18.008c5.45-.181,9.357,2.907,10.265,8.266A20.6,20.6,0,0,1,63.626,13c-.545,8.448-.908,16.9-.636,25.343q.136,3.134.273,6.268a1.786,1.786,0,0,0,1,1.726,48.458,48.458,0,0,1,10.264,8.448,35.128,35.128,0,0,1,9.538,21.983,59.22,59.22,0,0,1-5,28.8A44.339,44.339,0,0,1,68.8,119.822l-1,1c-.091.091-.091.181-.181.273.181.454.455.908.636,1.453a7.375,7.375,0,0,1-1.091,7.086,18.562,18.562,0,0,1-3.905,3.633c-.454.364-.817.818-1.272,1.181-.908.454-1.726.818-2.543,1.271-.455.092-.908.092-1.272.182a42.12,42.12,0,0,1-12.581,1.684Q44.26,137.584,42.916,137.535Zm-18.8-12.627a7.225,7.225,0,0,0,2.543,4.178,15.662,15.662,0,0,0,7.449,3.725,51.376,51.376,0,0,0,19.711.363,15.5,15.5,0,0,0,7.176-2.816,11.534,11.534,0,0,0,3.361-3.27,3.343,3.343,0,0,0,.181-3.542,59.709,59.709,0,0,1-6.449,2.18,60.953,60.953,0,0,1-19.53,1.181A30.653,30.653,0,0,1,24.749,123c-.092-.091-.273-.091-.636-.272A17.326,17.326,0,0,0,24.113,124.908Zm-13.171-55.5a17.331,17.331,0,0,0-7.176,10.9A24.449,24.449,0,0,0,5.036,93.57a45.308,45.308,0,0,0,5.814,11.445,48.423,48.423,0,0,0,12.263,12.808,25.563,25.563,0,0,0,11.082,5,58.858,58.858,0,0,0,22.891-.636,15.06,15.06,0,0,0,6.722-3A42.407,42.407,0,0,0,74.8,105.469a54.071,54.071,0,0,0,5.359-28.431,30.6,30.6,0,0,0-4.905-15.079A41.54,41.54,0,0,0,63.99,50.694a.988.988,0,0,1-.455-.091c.636,5.178,1.18,10.356,1.726,15.442-.091,0-.182.091-.272.091a19,19,0,0,1-1-1.907,56.763,56.763,0,0,1-3.634-11.536,89.681,89.681,0,0,1-1.271-14.806c-.182-8.175.091-16.441.635-24.617a18.235,18.235,0,0,0-.091-4.451c-.544-3.27-2.725-5-5.995-5.087a10.754,10.754,0,0,0-5.087,1.18,14.852,14.852,0,0,0-8.63,12.263c-.272,2.271-.363,4.542-.636,6.813-.727,7.448-1.453,14.9-1.726,22.436a14.884,14.884,0,0,0,.364,4c.727,3.089,1.726,6.177,2.634,9.174.636,2.09,1.454,4.178,2.271,6.631L42.1,65.5a59.831,59.831,0,0,1-7.358-13.9L27.927,33.89a136.257,136.257,0,0,1-5.359-15.9,11.593,11.593,0,0,0-1-2.453,5.716,5.716,0,0,0-7.54-2.634,13.151,13.151,0,0,0-6.631,5.9A15.271,15.271,0,0,0,6.127,30.075c1.09,4.178,2.453,8.266,3.815,12.354,1.908,5.723,4,11.355,6,17.077a49.485,49.485,0,0,1,2.543,12.627,21.131,21.131,0,0,1-3.089,12.99c-1.09,1.726-2.18,3.542-3.27,5.268l-.272.272c1.09-3.815,2.634-7.449,3.179-11.445a34.124,34.124,0,0,0-.818-12.081C13.03,67.954,11.94,68.68,10.941,69.407Zm24.98,48.144c0-.181-.091-.454-.091-.818a115.627,115.627,0,0,0-1.817-13.716,4.422,4.422,0,0,1-.091-1.09,1.758,1.758,0,0,1,1.635-1.635,1.967,1.967,0,0,1,1.907,1.272,11.768,11.768,0,0,1,.364,1.726,103.827,103.827,0,0,1,1.635,12.99c0,.454.091.818-.092,1a1.642,1.642,0,0,1-1.453,1.454,2.166,2.166,0,0,1-.24.014A1.924,1.924,0,0,1,35.921,117.55Zm10.083-1c0-.181-.092-.636-.092-1a176.619,176.619,0,0,0,.182-20.8,5.952,5.952,0,0,1,0-1.271,1.932,1.932,0,0,1,1.635-1.726,1.748,1.748,0,0,1,1.817,1.271,1.773,1.773,0,0,1,.091.727c.181,6.812.545,13.535,0,20.347a17.659,17.659,0,0,1-.182,2.18,1.832,1.832,0,0,1-1.635,1.453,1.348,1.348,0,0,1-.192.014A1.893,1.893,0,0,1,46,116.551Zm8.266-1.09a11.6,11.6,0,0,1,.181-1.544c.363-1.091.727-2.271,1.09-3.361a62.828,62.828,0,0,0,2-9.993,6.922,6.922,0,0,1,.272-1.907,1.645,1.645,0,0,1,2-1.363,1.746,1.746,0,0,1,1.544,2.09A70.728,70.728,0,0,1,58.9,111.737c-.363,1.272-.727,2.453-1.18,3.725a1.78,1.78,0,0,1-1.635,1.181A2.123,2.123,0,0,1,54.27,115.462Z" transform="translate(0 0)"/>
    </g>
  </g>
</svg>
