<svg xmlns="http://www.w3.org/2000/svg" viewBox="555 512 90.484 107.75">
  <defs>
    <style>
      .cls-1 {
        fill: #5d5b79;
      }
    </style>
  </defs>
  <g id="Group_2" data-name="Group 2" transform="translate(555 512)">
    <path id="Union_3" data-name="Union 3" class="cls-1" d="M42.675,106.43A13.721,13.721,0,0,1,34.9,101.51a7.153,7.153,0,0,1-1.07-7.487v-.285c-.427-.357-.855-.714-1.283-1.141-2.424-2.282-4.919-4.634-7.344-6.916-1.283-1.212-2.567-2.424-3.922-3.565a4.652,4.652,0,0,0-2.353-1,55.3,55.3,0,0,1-10.7-2.424,33.671,33.671,0,0,1-4.349-1.925,7.406,7.406,0,0,1-2.852-2.5,4.743,4.743,0,0,1-.713-4.634,19.2,19.2,0,0,1,6.417-8.913,12.6,12.6,0,0,1,9.126-2.353,22.833,22.833,0,0,1,7.7,2.567c1.783.927,3.423,2,5.134,3.066.143.071.286.214.571.357a4.1,4.1,0,0,0,.071-.856A98.834,98.834,0,0,0,26.7,45.254c-1.568-6.346-3.28-12.62-4.919-18.894a32.825,32.825,0,0,1-1-4.421A14.255,14.255,0,0,1,24.422,9.746,10.465,10.465,0,0,1,30.911,6.11a7.128,7.128,0,0,1,7.7,3.921,12.35,12.35,0,0,1,1,2.709,152.607,152.607,0,0,0,5.7,17.54c0,.071,0,.142.143.285a3.142,3.142,0,0,0,.142-.713c.713-5.775,1.355-11.551,2.068-17.326A14.477,14.477,0,0,1,58.433.334,10.827,10.827,0,0,1,62.71.121a7.142,7.142,0,0,1,6.132,5.419,12.3,12.3,0,0,1,.285,4.849c-.285,4.349-.642,8.627-.855,12.977-.142,2.923-.142,5.775-.142,8.627,0,.286.071.642.071.927h.142c.642-1.283,1.355-2.5,1.925-3.779,1.569-3.351,2.995-6.774,4.563-10.125a11.092,11.092,0,0,1,7.629-6.488c3.779-.927,6.774,1.07,7.914,5.134a6.248,6.248,0,0,1-.071,2.567c-.427,2.353-.927,4.777-1.426,7.13-1.426,6.417-2.852,12.834-4.135,19.251a44.667,44.667,0,0,0-1.07,10.7c.071,2,.285,4.064.285,6.06a44.859,44.859,0,0,1-4.42,19.679A36.232,36.232,0,0,1,70.7,94.665a3.518,3.518,0,0,0-.57.5c.142.285.214.642.356.927a6.327,6.327,0,0,1-1.64,6.774A16.242,16.242,0,0,1,60,107.214a42.383,42.383,0,0,1-6.72.535A43.673,43.673,0,0,1,42.675,106.43Zm-6.488-8.485a5.729,5.729,0,0,0,1.355,2.282,12.3,12.3,0,0,0,6.346,3.565,40.5,40.5,0,0,0,12.763.927c1.355-.143,2.78-.357,4.206-.642a12.364,12.364,0,0,0,5.99-3.423,3.124,3.124,0,0,0,.784-3.707c-.642.285-1.283.57-1.925.784a17.537,17.537,0,0,1-2.068.642,47.647,47.647,0,0,1-20.321.214A14.547,14.547,0,0,1,38.611,96.8c-.713-.427-1.5-.855-2.282-1.283A3.208,3.208,0,0,0,36.187,97.945ZM7.88,63.293A18.434,18.434,0,0,0,3.032,70.28,2.311,2.311,0,0,0,3.6,72.918a11.726,11.726,0,0,0,4.349,2.567A48.974,48.974,0,0,0,19,78.123a7.777,7.777,0,0,1,4.207,1.854c1.426,1.212,2.78,2.5,4.135,3.779,2.638,2.567,5.2,5.2,8.057,7.487a22.308,22.308,0,0,0,12.05,5.134A52.243,52.243,0,0,0,58,96.448a28.272,28.272,0,0,0,5.847-1.141,8.982,8.982,0,0,0,3.209-1.568A33.864,33.864,0,0,0,76.828,81.76a42.361,42.361,0,0,0,4.136-18.467c0-2-.214-4.064-.286-6.06a51.215,51.215,0,0,1,1.141-11.408c1.355-6.631,2.781-13.191,4.207-19.75.5-2.21.927-4.421,1.355-6.631a3.88,3.88,0,0,0,0-1.569c-.713-2.21-2.211-3.209-4.492-2.5A8.242,8.242,0,0,0,77.4,20.3a123.522,123.522,0,0,1-7.985,16.328,6.574,6.574,0,0,0-.855,3.993c.285,3.422.57,6.916.855,10.339a4.381,4.381,0,0,1,.071,1,6.173,6.173,0,0,1-.784-1.283,39.948,39.948,0,0,1-3.209-12.834,98.74,98.74,0,0,1-.214-12.977c.214-4.991.642-9.911,1-14.9a11.169,11.169,0,0,0-.214-3.779A4.409,4.409,0,0,0,62.283,2.83a5.607,5.607,0,0,0-3.209.428,11.844,11.844,0,0,0-8.628,9.982c-.285,2.424-.57,4.92-.855,7.416-.5,5.134-1.07,10.339-1.569,15.472a10.119,10.119,0,0,0,.357,3.85c1,3.422,1.925,6.844,2.924,10.267.142.427.285.855.427,1.355a.551.551,0,0,0-.214-.071c-.142-.214-.285-.357-.428-.57A43.3,43.3,0,0,1,45.67,40.049c-1-2.924-2-5.847-3.066-8.7a148.353,148.353,0,0,1-5.918-18.324A6.451,6.451,0,0,0,35.9,11.1a4.254,4.254,0,0,0-4.136-2.139,5.691,5.691,0,0,0-2.995.927,10.292,10.292,0,0,0-4.848,6.417,13.382,13.382,0,0,0,0,6.916c1,3.85,2.068,7.629,3.066,11.408a142.8,142.8,0,0,1,4.634,22.6c.285,3.137.356,6.346.57,9.554a1.628,1.628,0,0,1-.784,1.782c-.785.357-1.355-.071-1.925-.5a4.952,4.952,0,0,0-.714-.57,44.618,44.618,0,0,0-6.559-4.207,20.011,20.011,0,0,0-6.988-2.21q-.5-.039-.987-.04A9.629,9.629,0,0,0,7.88,63.293Zm37.433,27.95a81.761,81.761,0,0,0-1.141-11.052,2.923,2.923,0,0,1-.071-.784,1.42,1.42,0,0,1,2.353-.855,1.915,1.915,0,0,1,.428.855,72.336,72.336,0,0,1,1.212,11.765,1.4,1.4,0,0,1-1.355,1.64A1.427,1.427,0,0,1,45.313,91.243Zm9.055.784a1.366,1.366,0,0,1-1.212-1.212v-.5a138.855,138.855,0,0,0,.57-16.328,5.4,5.4,0,0,1,.071-1.07c.214-1.07,1.355-1.5,2.424-.713a6.138,6.138,0,0,1,.357,1.07,11.47,11.47,0,0,1-.071,2.21,123.953,123.953,0,0,1-.5,14.546,4.208,4.208,0,0,1-.142,1,1.34,1.34,0,0,1-1.343,1.006Q54.446,92.035,54.368,92.027Zm6.346-.784a1.373,1.373,0,0,1-1-1.427c.071-.285.142-.57.214-.784a49.256,49.256,0,0,0,2.709-10.481q.107-.535.214-1.07a1.539,1.539,0,0,1,1.64-1.355,1.388,1.388,0,0,1,1.141,1.783c-.357,2-.642,4.064-1.141,6.06-.5,2.139-1.283,4.136-1.925,6.2a1.71,1.71,0,0,1-.214.5,1.511,1.511,0,0,1-1.194.652A1.269,1.269,0,0,1,60.714,91.243Z" transform="translate(0 0)"/>
  </g>
</svg>
