<svg xmlns="http://www.w3.org/2000/svg" viewBox="567 409 66.823 80.639">
  <defs>
    <style>
      .cls-1 {
        fill: #5d5b79;
      }
    </style>
  </defs>
  <g id="Group_3" data-name="Group 3" transform="translate(567 409)">
    <path id="Union_1" data-name="Union 1" class="cls-1" d="M35.6,80.632a40.016,40.016,0,0,1-9.747-1.155,14.2,14.2,0,0,1-6.714-4.116,7.525,7.525,0,0,1-2.166-5.126,17.881,17.881,0,0,1,.361-2.743.223.223,0,0,0-.072-.144c-.361-.289-.722-.506-1.083-.794A44.793,44.793,0,0,1,2.168,48.431,24.421,24.421,0,0,1,0,39.118,17.158,17.158,0,0,1,7.294,24.245c.722-.506,1.516-1.011,2.238-1.517.216-.144.433-.289.722-.5-.144-.361-.216-.723-.361-1.083a13.273,13.273,0,0,1-.867-5.776A11.1,11.1,0,0,1,17.619,5.111a11.528,11.528,0,0,1,8.158,1.444c.361.145.65.361.939.506,2.094-4.693,5.992-6.642,10.757-7,5.2-.433,9.314,1.589,11.841,6.354.795,0,1.517-.072,2.239-.072a10.6,10.6,0,0,1,8.086,4.4,24.885,24.885,0,0,1,4.4,8.447,59.057,59.057,0,0,1,2.166,9.241,49.724,49.724,0,0,1-.072,16.029A38.71,38.71,0,0,1,54.585,66.77a1.913,1.913,0,0,1-.361.433,8.481,8.481,0,0,0,.361.794,5.605,5.605,0,0,1-.577,6.065,13.8,13.8,0,0,1-6.931,4.982,36.31,36.31,0,0,1-10.748,1.595C36.085,80.639,35.841,80.637,35.6,80.632Zm-15.162-8.3A9.685,9.685,0,0,0,25.705,76.3a23.475,23.475,0,0,0,3.9.866,39.648,39.648,0,0,0,14.873-.506,13.113,13.113,0,0,0,5.7-2.96A7.524,7.524,0,0,0,51.769,71.9a2.622,2.622,0,0,0,0-2.888c-.722.361-1.372.65-2.022.938a33.122,33.122,0,0,1-9.531,2.094,55.7,55.7,0,0,1-10.974,0,24.459,24.459,0,0,1-8.375-2.527c-.289-.144-.578-.289-.939-.433A4.168,4.168,0,0,0,20.435,72.33ZM10.688,25.472,8.522,26.988A14.132,14.132,0,0,0,2.89,38.973,22.07,22.07,0,0,0,4.767,47.06a41.4,41.4,0,0,0,12.49,16.678A23.545,23.545,0,0,0,32.42,69.369a51.736,51.736,0,0,0,13.718-1.3c1.011-.289,1.877-.578,2.816-.938A9.592,9.592,0,0,0,51.769,65.4,35.307,35.307,0,0,0,63.177,45.255a44.348,44.348,0,0,0,.216-16.895c-.506-2.6-1.083-5.2-1.733-7.725a22.752,22.752,0,0,0-3.177-7A12.463,12.463,0,0,0,55.668,10.6,7.586,7.586,0,0,0,50.9,9.154c-.144,0-.289.073-.433.073-.072,0-.072.072-.216.144.938,4.4,1.949,8.808,1.227,13.357C50.9,21,50.325,19.263,49.82,17.53c-.866-2.888-1.66-5.848-2.6-8.736a7.532,7.532,0,0,0-4.693-5.2A10.874,10.874,0,0,0,31.7,5.183,4.957,4.957,0,0,0,29.46,9.66l.216.867c.506,1.444,1.083,2.96,1.516,4.4a30.721,30.721,0,0,1,1.227,9.386,9.265,9.265,0,0,1-.433-.867c-1.3-3.61-2.744-7.22-4.332-10.685a8.167,8.167,0,0,0-8.809-4.982,7.54,7.54,0,0,0-6.137,4.766,9.368,9.368,0,0,0-.289,6.714,8.478,8.478,0,0,0,.5,1.444c1.155,2.094,1.372,4.4,1.733,6.642a21.353,21.353,0,0,1-.072,6.426,15.77,15.77,0,0,1-2.166,5.632c-.867,1.516-1.805,2.888-2.672,4.187,0-.144.145-.433.217-.794.578-1.877,1.227-3.755,1.732-5.7a24.329,24.329,0,0,0-.216-11.624c0-.073-.072-.145-.144-.289A2.546,2.546,0,0,0,10.688,25.472Zm18.267,38.7a72.678,72.678,0,0,0-1.516-10.325,7.955,7.955,0,0,1-.145-1.3A1.5,1.5,0,0,1,28.3,51.1a1.552,1.552,0,0,1,1.661.722,2.13,2.13,0,0,1,.216.65c.361,2.166.794,4.043,1.083,5.992.289,1.877.433,3.755.577,5.632a1.369,1.369,0,0,1-1.3,1.661c-.048,0-.1.006-.143.006C29.605,65.766,29.022,65.194,28.954,64.171Zm8.086-.794v-.433A117.943,117.943,0,0,0,36.9,47.782a12.964,12.964,0,0,1-.072-2.383,1.342,1.342,0,0,1,1.3-1.3,1.466,1.466,0,0,1,1.516,1.155c0,.794.073,1.733.145,2.671a125.456,125.456,0,0,1,.144,14.729,4.443,4.443,0,0,1-.072.938,1.46,1.46,0,0,1-1.444,1.155A1.538,1.538,0,0,1,37.04,63.377Zm7.653.216a1.4,1.4,0,0,1-1.083-1.3,8.162,8.162,0,0,1,.288-1.083A58.382,58.382,0,0,0,45.993,51.1c.072-.506.144-1.083.217-1.588a1.459,1.459,0,1,1,2.888.361,56,56,0,0,1-2.527,12.346,2.663,2.663,0,0,1-.361.794,1.423,1.423,0,0,1-1.165.622A1.451,1.451,0,0,1,44.694,63.593Z" transform="translate(0 0)"/>
  </g>
</svg>
