<svg id="Group_10" data-name="Group 10" xmlns="http://www.w3.org/2000/svg" viewBox="479.719 385.347 229.307 229.307">
  <defs>
    <style>
      .cls-1 {
        fill: #fff;
      }

      .cls-2, .cls-4 {
        fill: #5d5b79;
      }

      .cls-3, .cls-4 {
        stroke: none;
      }
    </style>
  </defs>
  <g id="Path_13" data-name="Path 13" class="cls-1" transform="translate(479.719 385.347)">
    <path class="cls-3" d="M 183.4455413818359 227.806884765625 L 45.86139297485352 227.806884765625 C 39.87197875976562 227.806884765625 34.06253814697266 226.6341857910156 28.59439086914062 224.3213653564453 C 23.31206703186035 222.0871276855469 18.56771469116211 218.8883056640625 14.49315547943115 214.8137512207031 C 10.41859722137451 210.7391815185547 7.219773769378662 205.9948272705078 4.985538482666016 200.7125091552734 C 2.672714710235596 195.244384765625 1.500008821487427 189.4349517822266 1.500008821487427 183.4455413818359 L 1.500008821487427 45.86139297485352 C 1.500008821487427 39.87197875976562 2.672714710235596 34.06253814697266 4.985538482666016 28.59439086914062 C 7.219773769378662 23.31206703186035 10.41859722137451 18.56771469116211 14.49315547943115 14.49315547943115 C 18.56771469116211 10.41859722137451 23.31206703186035 7.219773769378662 28.59439086914062 4.985538482666016 C 34.06253814697266 2.672714710235596 39.87197875976562 1.500008821487427 45.86139297485352 1.500008821487427 L 183.4455413818359 1.500008821487427 C 189.4349517822266 1.500008821487427 195.244384765625 2.672714710235596 200.7125091552734 4.985538482666016 C 205.9948272705078 7.219773769378662 210.7391815185547 10.41859722137451 214.8137512207031 14.49315547943115 C 218.8883056640625 18.56771469116211 222.0871276855469 23.31206703186035 224.3213653564453 28.59439086914062 C 226.6341857910156 34.06253814697266 227.806884765625 39.87197875976562 227.806884765625 45.86139297485352 L 227.806884765625 183.4455413818359 C 227.806884765625 189.4349517822266 226.6341857910156 195.244384765625 224.3213653564453 200.7125091552734 C 222.0871276855469 205.9948272705078 218.8883056640625 210.7391815185547 214.8137512207031 214.8137512207031 C 210.7391815185547 218.8883056640625 205.9948272705078 222.0871276855469 200.7125091552734 224.3213653564453 C 195.244384765625 226.6341857910156 189.4349517822266 227.806884765625 183.4455413818359 227.806884765625 Z"/>
    <path class="cls-4" d="M 183.4455413818359 226.3069152832031 C 189.2331085205078 226.3069152832031 194.845947265625 225.174072265625 200.1282043457031 222.9398803710938 C 205.2317352294922 220.7812652587891 209.8158264160156 217.6903839111328 213.7531127929688 213.7531127929688 C 217.6903839111328 209.8158264160156 220.7812652587891 205.2317352294922 222.9398803710938 200.1282043457031 C 225.174072265625 194.845947265625 226.3069152832031 189.2331085205078 226.3069152832031 183.4455413818359 L 226.3069152832031 45.86138916015625 C 226.3069152832031 40.07382583618164 225.174072265625 34.4609489440918 222.9398803710938 29.17873191833496 C 220.7812652587891 24.07519912719727 217.6903839111328 19.4911060333252 213.7531127929688 15.55382537841797 C 209.8158264160156 11.61654376983643 205.2317352294922 8.525669097900391 200.1282043457031 6.367043972015381 C 194.845947265625 4.132856369018555 189.2331085205078 3.000012397766113 183.4455413818359 3.000012397766113 L 45.86138916015625 3.000012397766113 C 40.07382583618164 3.000012397766113 34.4609489440918 4.132856369018555 29.17873191833496 6.367043972015381 C 24.07519912719727 8.525669097900391 19.4911060333252 11.61654376983643 15.55382537841797 15.55382537841797 C 11.61654376983643 19.4911060333252 8.525669097900391 24.07519912719727 6.367043972015381 29.17873191833496 C 4.132856369018555 34.4609489440918 3.000012397766113 40.07382583618164 3.000012397766113 45.86138916015625 L 3.000012397766113 183.4455413818359 C 3.000012397766113 189.2331085205078 4.132856369018555 194.845947265625 6.367043972015381 200.1282043457031 C 8.525669097900391 205.2317352294922 11.61654376983643 209.8158264160156 15.55382537841797 213.7531127929688 C 19.4911060333252 217.6903839111328 24.07519912719727 220.7812652587891 29.17873191833496 222.9398803710938 C 34.4609489440918 225.174072265625 40.07382583618164 226.3069152832031 45.86138916015625 226.3069152832031 L 183.4455413818359 226.3069152832031 M 183.4455413818359 229.3069152832031 L 45.86138916015625 229.3069152832031 C 20.53285598754883 229.3069152832031 1.251220692211064e-05 208.7740478515625 1.251220692211064e-05 183.4455413818359 L 1.251220692211064e-05 45.86138916015625 C 1.251220692211064e-05 20.53285598754883 20.53285598754883 1.251220692211064e-05 45.86138916015625 1.251220692211064e-05 L 183.4455413818359 1.251220692211064e-05 C 208.7740478515625 1.251220692211064e-05 229.3069152832031 20.53285598754883 229.3069152832031 45.86138916015625 L 229.3069152832031 183.4455413818359 C 229.3069152832031 208.7740478515625 208.7740478515625 229.3069152832031 183.4455413818359 229.3069152832031 Z"/>
  </g>
  <g id="Group_3" data-name="Group 3" transform="translate(552.18 449.552)">
    <path id="Union_1" data-name="Union 1" class="cls-2" d="M44.67,101.186a50.216,50.216,0,0,1-12.232-1.449,17.816,17.816,0,0,1-8.426-5.165,9.443,9.443,0,0,1-2.718-6.433,22.439,22.439,0,0,1,.453-3.443.28.28,0,0,0-.091-.181c-.453-.362-.906-.634-1.359-1A56.21,56.21,0,0,1,2.721,60.777,30.646,30.646,0,0,1,0,49.089C-.088,41.3,2.811,35.135,9.154,30.425c.906-.634,1.9-1.269,2.808-1.9.272-.181.544-.362.906-.634-.181-.453-.272-.907-.453-1.359a16.656,16.656,0,0,1-1.088-7.248A13.936,13.936,0,0,1,22.11,6.414,14.466,14.466,0,0,1,32.348,8.226c.453.182.815.453,1.178.634,2.627-5.889,7.52-8.335,13.5-8.789,6.523-.543,11.688,1.994,14.859,7.973,1,0,1.9-.09,2.809-.09a13.3,13.3,0,0,1,10.147,5.527,31.229,31.229,0,0,1,5.527,10.6,74.11,74.11,0,0,1,2.718,11.6A62.4,62.4,0,0,1,83,55.794a48.578,48.578,0,0,1-14.5,28,2.4,2.4,0,0,1-.453.544,10.641,10.641,0,0,0,.453,1,7.034,7.034,0,0,1-.724,7.61,17.312,17.312,0,0,1-8.7,6.252,45.565,45.565,0,0,1-13.487,2C45.283,101.194,44.976,101.191,44.67,101.186ZM25.643,90.767a12.154,12.154,0,0,0,6.614,4.983,29.459,29.459,0,0,0,4.893,1.087A49.755,49.755,0,0,0,55.815,96.2a16.455,16.455,0,0,0,7.158-3.714,9.441,9.441,0,0,0,1.993-2.265,3.29,3.29,0,0,0,0-3.624c-.906.453-1.721.815-2.537,1.177A41.565,41.565,0,0,1,50.469,90.4a69.894,69.894,0,0,1-13.772,0,30.694,30.694,0,0,1-10.509-3.171c-.363-.181-.725-.362-1.178-.543A5.23,5.23,0,0,0,25.643,90.767Zm-12.232-58.8-2.718,1.9a17.734,17.734,0,0,0-7.067,15.04A27.7,27.7,0,0,0,5.982,59.055,51.953,51.953,0,0,0,21.657,79.984a29.547,29.547,0,0,0,19.027,7.067A64.923,64.923,0,0,0,57.9,85.421c1.269-.362,2.356-.725,3.534-1.177a12.036,12.036,0,0,0,3.533-2.175A44.307,44.307,0,0,0,79.281,56.79a55.653,55.653,0,0,0,.272-21.2c-.634-3.262-1.359-6.523-2.175-9.695a28.551,28.551,0,0,0-3.987-8.789,15.64,15.64,0,0,0-3.533-3.8,9.52,9.52,0,0,0-5.98-1.813c-.181,0-.363.091-.544.091-.091,0-.091.091-.272.181,1.177,5.527,2.446,11.053,1.54,16.761-.725-2.174-1.45-4.349-2.084-6.523-1.087-3.624-2.083-7.339-3.262-10.963a9.451,9.451,0,0,0-5.889-6.523A13.646,13.646,0,0,0,39.777,6.5a6.22,6.22,0,0,0-2.808,5.618l.272,1.088c.634,1.812,1.359,3.714,1.9,5.526a38.552,38.552,0,0,1,1.54,11.779,11.626,11.626,0,0,1-.543-1.088C38.509,24.9,36.7,20.367,34.7,16.018A10.248,10.248,0,0,0,23.65,9.766a9.462,9.462,0,0,0-7.7,5.98,11.756,11.756,0,0,0-.362,8.426,10.639,10.639,0,0,0,.634,1.812c1.45,2.627,1.721,5.527,2.175,8.335a26.8,26.8,0,0,1-.09,8.064,19.79,19.79,0,0,1-2.718,7.067c-1.088,1.9-2.265,3.624-3.353,5.255,0-.181.182-.543.272-1,.725-2.356,1.54-4.712,2.174-7.158a30.531,30.531,0,0,0-.272-14.587c0-.091-.091-.182-.181-.363A3.2,3.2,0,0,0,13.412,31.965ZM36.335,80.528a91.2,91.2,0,0,0-1.9-12.956,9.982,9.982,0,0,1-.182-1.631,1.881,1.881,0,0,1,1.269-1.812,1.948,1.948,0,0,1,2.084.906,2.673,2.673,0,0,1,.272.815c.453,2.718,1,5.074,1.359,7.52.362,2.356.543,4.712.724,7.067a1.719,1.719,0,0,1-1.631,2.084c-.061.005-.121.008-.179.008C37.152,82.53,36.42,81.812,36.335,80.528Zm10.147-1v-.544A148.006,148.006,0,0,0,46.3,59.961a16.268,16.268,0,0,1-.09-2.99,1.684,1.684,0,0,1,1.631-1.631,1.84,1.84,0,0,1,1.9,1.45c0,1,.091,2.175.182,3.352a157.433,157.433,0,0,1,.181,18.483,5.576,5.576,0,0,1-.09,1.178,1.833,1.833,0,0,1-1.812,1.45A1.93,1.93,0,0,1,46.482,79.532Zm9.6.272a1.762,1.762,0,0,1-1.358-1.631,10.242,10.242,0,0,1,.362-1.359,73.264,73.264,0,0,0,2.627-12.685c.091-.634.181-1.359.272-1.993a1.83,1.83,0,1,1,3.624.453,70.278,70.278,0,0,1-3.171,15.493,3.342,3.342,0,0,1-.453,1,1.786,1.786,0,0,1-1.462.78A1.821,1.821,0,0,1,56.086,79.8Z" transform="translate(0 0)"/>
  </g>
</svg>
