<svg xmlns="http://www.w3.org/2000/svg" viewBox="567 643 66.457 108.581">
  <defs>
    <style>
      .cls-1 {
        fill: #5d5b79;
      }
    </style>
  </defs>
  <g id="Group_1" data-name="Group 1" transform="translate(567 643)">
    <path id="Union_2" data-name="Union 2" class="cls-1" d="M33.869,108.542a36.247,36.247,0,0,1-8.746-1.219,13.386,13.386,0,0,1-7.1-4.516,7.108,7.108,0,0,1-1.434-7.169.432.432,0,0,0,.072-.287c-1.147-1-2.366-2.007-3.512-3.01A44.305,44.305,0,0,1,3.545,79.58,32.507,32.507,0,0,1,.176,69.329c-.645-5.3.43-10.251,4.158-14.338a22.663,22.663,0,0,1,5.233-4.158,4.9,4.9,0,0,1,.788-.5l.287-.286c-.574-1.649-1.076-3.369-1.649-5.09-1.577-4.516-3.3-9.1-4.874-13.692a53.232,53.232,0,0,1-2.151-7.527A14.5,14.5,0,0,1,5.481,10.616,12.033,12.033,0,0,1,11.072,7.1a7.45,7.45,0,0,1,9.1,5.162c.573,1.864,1,3.728,1.648,5.592.932,2.652,1.864,5.3,2.868,7.957.573,1.649,1.218,3.226,1.863,4.8a4.65,4.65,0,0,0,.287.645,4.136,4.136,0,0,0,.143-.717c.574-5.807,1.076-11.685,1.649-17.492A14.689,14.689,0,0,1,40.751.15,7.014,7.014,0,0,1,41.969.006c4.3-.143,7.384,2.294,8.1,6.524a16.26,16.26,0,0,1,.143,3.728c-.43,6.667-.717,13.334-.5,20q.107,2.474.215,4.947a1.409,1.409,0,0,0,.788,1.362,38.243,38.243,0,0,1,8.1,6.667,27.723,27.723,0,0,1,7.527,17.349A46.736,46.736,0,0,1,62.4,83.308a34.992,34.992,0,0,1-8.1,11.255l-.788.788c-.072.072-.072.143-.143.215.143.358.359.717.5,1.147a5.82,5.82,0,0,1-.861,5.592,14.649,14.649,0,0,1-3.082,2.867c-.359.287-.645.645-1,.932-.717.358-1.362.645-2.007,1-.359.072-.717.072-1,.144a33.242,33.242,0,0,1-9.929,1.329Q34.93,108.581,33.869,108.542ZM19.03,98.577a5.7,5.7,0,0,0,2.007,3.3,12.361,12.361,0,0,0,5.878,2.939,40.546,40.546,0,0,0,15.556.286,12.23,12.23,0,0,0,5.664-2.222,9.1,9.1,0,0,0,2.652-2.581,2.638,2.638,0,0,0,.143-2.8,47.122,47.122,0,0,1-5.09,1.72,48.1,48.1,0,0,1-15.413.932,24.191,24.191,0,0,1-10.9-3.083c-.072-.072-.215-.072-.5-.215A13.673,13.673,0,0,0,19.03,98.577ZM8.635,54.776a13.678,13.678,0,0,0-5.664,8.6,19.3,19.3,0,0,0,1,10.466,35.757,35.757,0,0,0,4.589,9.033,38.216,38.216,0,0,0,9.678,10.108,20.174,20.174,0,0,0,8.746,3.943,46.451,46.451,0,0,0,18.065-.5,11.885,11.885,0,0,0,5.3-2.366,33.467,33.467,0,0,0,8.675-10.825A42.672,42.672,0,0,0,63.261,60.8,24.149,24.149,0,0,0,59.39,48.9,32.784,32.784,0,0,0,50.5,40.008a.78.78,0,0,1-.359-.072c.5,4.087.932,8.173,1.362,12.187-.072,0-.143.072-.215.072A14.991,14.991,0,0,1,50.5,50.69a44.8,44.8,0,0,1-2.868-9.1,70.776,70.776,0,0,1-1-11.685c-.144-6.452.072-12.975.5-19.427a14.391,14.391,0,0,0-.072-3.513,4.5,4.5,0,0,0-4.731-4.014,8.487,8.487,0,0,0-4.014.932A11.721,11.721,0,0,0,31.5,13.555c-.215,1.792-.286,3.585-.5,5.377-.574,5.878-1.147,11.757-1.362,17.707a11.746,11.746,0,0,0,.287,3.154c.574,2.438,1.362,4.875,2.079,7.24.5,1.649,1.147,3.3,1.792,5.233l-.574-.573a47.219,47.219,0,0,1-5.807-10.968L22.04,26.746A107.534,107.534,0,0,1,17.811,14.2a9.149,9.149,0,0,0-.788-1.936,4.511,4.511,0,0,0-5.951-2.079,10.379,10.379,0,0,0-5.233,4.66,12.052,12.052,0,0,0-1,8.889c.86,3.3,1.936,6.524,3.01,9.75C9.352,38,11,42.446,12.578,46.962a39.054,39.054,0,0,1,2.007,9.965,16.676,16.676,0,0,1-2.438,10.251c-.86,1.362-1.721,2.8-2.581,4.158l-.215.215c.86-3.01,2.079-5.878,2.509-9.033a26.931,26.931,0,0,0-.645-9.534C10.283,53.629,9.423,54.2,8.635,54.776ZM28.349,92.771c0-.143-.072-.358-.072-.645A91.252,91.252,0,0,0,26.844,81.3a3.49,3.49,0,0,1-.072-.86,1.388,1.388,0,0,1,1.29-1.29,1.552,1.552,0,0,1,1.505,1,9.288,9.288,0,0,1,.287,1.362,81.94,81.94,0,0,1,1.29,10.252c0,.358.072.645-.072.788A1.3,1.3,0,0,1,29.926,93.7a1.71,1.71,0,0,1-.189.011A1.518,1.518,0,0,1,28.349,92.771Zm7.958-.788c0-.143-.072-.5-.072-.788a139.387,139.387,0,0,0,.144-16.417,4.7,4.7,0,0,1,0-1,1.524,1.524,0,0,1,1.29-1.362,1.38,1.38,0,0,1,1.434,1,1.4,1.4,0,0,1,.072.574,149.979,149.979,0,0,1,0,16.058,13.936,13.936,0,0,1-.143,1.721,1.446,1.446,0,0,1-1.29,1.146,1.065,1.065,0,0,1-.152.011A1.494,1.494,0,0,1,36.307,91.982Zm6.524-.86a9.154,9.154,0,0,1,.143-1.219c.286-.861.574-1.792.86-2.652a49.584,49.584,0,0,0,1.577-7.886,5.463,5.463,0,0,1,.215-1.505A1.3,1.3,0,0,1,47.2,76.784a1.378,1.378,0,0,1,1.219,1.649,55.818,55.818,0,0,1-1.936,9.75c-.286,1-.574,1.936-.932,2.94a1.4,1.4,0,0,1-1.29.932A1.675,1.675,0,0,1,42.83,91.122Z" transform="translate(0 0)"/>
  </g>
</svg>
