<svg xmlns="http://www.w3.org/2000/svg" viewBox="1210.974 385.347 229.307 229.307">
  <defs>
    <style>
      .cls-1 {
        fill: #fff;
      }

      .cls-2, .cls-4 {
        fill: #5d5b79;
      }

      .cls-3, .cls-4 {
        stroke: none;
      }
    </style>
  </defs>
  <g id="Group_5" data-name="Group 5" transform="translate(1210.974 385.347)">
    <g id="Path_14" data-name="Path 14" class="cls-1" transform="translate(0)">
      <path class="cls-3" d="M 165.6105346679688 227.806884765625 L 63.69636154174805 227.806884765625 C 55.29924392700195 227.806884765625 47.15409851074219 226.1626281738281 39.48718643188477 222.9197998046875 C 35.80212783813477 221.3611602783203 32.24777221679688 219.431884765625 28.92283248901367 217.1856231689453 C 25.62909698486328 214.9604187011719 22.53177261352539 212.4048919677734 19.71689033508301 209.5899810791016 C 16.90200805664062 206.7751007080078 14.34647941589355 203.6777801513672 12.1212739944458 200.3840637207031 C 9.875008583068848 197.0591278076172 7.945744037628174 193.5047760009766 6.387096881866455 189.8196868896484 C 3.144273519515991 182.1527709960938 1.500008821487427 174.0076599121094 1.500008821487427 165.6105346679688 L 1.500008821487427 63.69636154174805 C 1.500008821487427 55.29924392700195 3.144273519515991 47.15409851074219 6.387096881866455 39.48718643188477 C 7.945744037628174 35.80212783813477 9.875008583068848 32.24777221679688 12.1212739944458 28.92283248901367 C 14.34647941589355 25.62909698486328 16.90200805664062 22.53177261352539 19.71689033508301 19.71689033508301 C 22.53177261352539 16.90200805664062 25.62909698486328 14.34647941589355 28.92283248901367 12.1212739944458 C 32.24777221679688 9.875008583068848 35.80212783813477 7.945744037628174 39.48718643188477 6.387096881866455 C 47.15409851074219 3.144273519515991 55.29924392700195 1.500008821487427 63.69636154174805 1.500008821487427 L 165.6105346679688 1.500008821487427 C 174.0076599121094 1.500008821487427 182.1527709960938 3.144273519515991 189.8196868896484 6.387096881866455 C 193.5047760009766 7.945744037628174 197.0591278076172 9.875008583068848 200.3840637207031 12.1212739944458 C 203.6777801513672 14.34647941589355 206.7751007080078 16.90200805664062 209.5899810791016 19.71689033508301 C 212.4048919677734 22.53177261352539 214.9604187011719 25.62909698486328 217.1856231689453 28.92283248901367 C 219.431884765625 32.24777221679688 221.3611602783203 35.80212783813477 222.9197998046875 39.48718643188477 C 226.1626281738281 47.15409851074219 227.806884765625 55.29924392700195 227.806884765625 63.69636154174805 L 227.806884765625 165.6105346679688 C 227.806884765625 174.0076599121094 226.1626281738281 182.1527709960938 222.9197998046875 189.8196868896484 C 221.3611602783203 193.5047760009766 219.431884765625 197.0591278076172 217.1856231689453 200.3840637207031 C 214.9604187011719 203.6777801513672 212.4048919677734 206.7751007080078 209.5899810791016 209.5899810791016 C 206.7751007080078 212.4048919677734 203.6777801513672 214.9604187011719 200.3840637207031 217.1856231689453 C 197.0591278076172 219.431884765625 193.5047760009766 221.3611602783203 189.8196868896484 222.9197998046875 C 182.1527709960938 226.1626281738281 174.0076599121094 227.806884765625 165.6105346679688 227.806884765625 Z"/>
      <path class="cls-4" d="M 165.6105499267578 226.3069152832031 C 173.8058319091797 226.3069152832031 181.7543487548828 224.7025451660156 189.2353820800781 221.538330078125 C 192.8312377929688 220.0173950195312 196.2996673583984 218.134765625 199.5443572998047 215.9427032470703 C 202.7589874267578 213.7709503173828 205.781982421875 211.2767333984375 208.5293579101562 208.5293579101562 C 211.2767333984375 205.781982421875 213.7709503173828 202.7589874267578 215.9427032470703 199.5443572998047 C 218.134765625 196.2996673583984 220.0173950195312 192.8312377929688 221.538330078125 189.2353820800781 C 224.7025451660156 181.7543487548828 226.3069152832031 173.8058319091797 226.3069152832031 165.6105499267578 L 226.3069152832031 63.69635772705078 C 226.3069152832031 55.50107574462891 224.7025451660156 47.55254364013672 221.538330078125 40.0715446472168 C 220.0173950195312 36.47566986083984 218.134765625 33.00723266601562 215.9427032470703 29.76254463195801 C 213.7709503173828 26.54795074462891 211.2767333984375 23.52495002746582 208.5293579101562 20.77757453918457 C 205.781982421875 18.03020095825195 202.7589874267578 15.53598117828369 199.5443572998047 13.36423110961914 C 196.2996673583984 11.17216873168945 192.8312377929688 9.289512634277344 189.2353820800781 7.768606185913086 C 181.7543487548828 4.604387283325195 173.8058319091797 3.000012397766113 165.6105499267578 3.000012397766113 L 63.69635772705078 3.000012397766113 C 55.50107574462891 3.000012397766113 47.55254364013672 4.604387283325195 40.0715446472168 7.768606185913086 C 36.47566986083984 9.289512634277344 33.00723266601562 11.17216873168945 29.76254463195801 13.36423110961914 C 26.54791831970215 15.53598117828369 23.52495002746582 18.03020095825195 20.77757453918457 20.77757453918457 C 18.03020095825195 23.52495002746582 15.53598117828369 26.54791831970215 13.36423110961914 29.76254463195801 C 11.17216873168945 33.00723266601562 9.289512634277344 36.47566986083984 7.768606185913086 40.0715446472168 C 4.604387283325195 47.55254364013672 3.000012397766113 55.50107574462891 3.000012397766113 63.69635772705078 L 3.000012397766113 165.6105499267578 C 3.000012397766113 173.8058319091797 4.604387283325195 181.7543487548828 7.768606185913086 189.2353820800781 C 9.289512634277344 192.8312377929688 11.17216873168945 196.2996673583984 13.36423110961914 199.5443572998047 C 15.53598117828369 202.7589874267578 18.03020095825195 205.781982421875 20.77757453918457 208.5293579101562 C 23.52495002746582 211.2767333984375 26.54795074462891 213.7709503173828 29.76254463195801 215.9427032470703 C 33.00723266601562 218.134765625 36.47566986083984 220.0173950195312 40.0715446472168 221.538330078125 C 47.55254364013672 224.7025451660156 55.50107574462891 226.3069152832031 63.69635772705078 226.3069152832031 L 165.6105499267578 226.3069152832031 M 165.6105499267578 229.3069152832031 L 63.69635772705078 229.3069152832031 C 28.51785659790039 229.3069152832031 1.251220692211064e-05 200.7890472412109 1.251220692211064e-05 165.6105499267578 L 1.251220692211064e-05 63.69635772705078 C 1.251220692211064e-05 28.51785659790039 28.51785659790039 1.251220692211064e-05 63.69635772705078 1.251220692211064e-05 L 165.6105499267578 1.251220692211064e-05 C 200.7890472412109 1.251220692211064e-05 229.3069152832031 28.51785659790039 229.3069152832031 63.69635772705078 L 229.3069152832031 165.6105499267578 C 229.3069152832031 200.7890472412109 200.7890472412109 229.3069152832031 165.6105499267578 229.3069152832031 Z"/>
    </g>
    <g id="Group_2" data-name="Group 2" transform="translate(56.868 45.861)">
      <path id="Union_3" data-name="Union 3" class="cls-2" d="M54.491,135.9a17.52,17.52,0,0,1-9.924-6.281,9.133,9.133,0,0,1-1.366-9.56v-.364c-.546-.456-1.092-.911-1.639-1.457-3.095-2.914-6.281-5.918-9.377-8.831-1.639-1.548-3.278-3.1-5.007-4.553a5.94,5.94,0,0,0-3-1.274,70.607,70.607,0,0,1-13.657-3.1,42.994,42.994,0,0,1-5.553-2.458,9.457,9.457,0,0,1-3.642-3.187,6.056,6.056,0,0,1-.91-5.918A24.514,24.514,0,0,1,8.605,77.54a16.09,16.09,0,0,1,11.653-3,29.155,29.155,0,0,1,9.833,3.278c2.276,1.184,4.371,2.55,6.555,3.915.183.091.365.274.728.456a5.237,5.237,0,0,0,.091-1.093A126.2,126.2,0,0,0,34.1,57.784c-2-8.1-4.188-16.115-6.281-24.126a41.913,41.913,0,0,1-1.275-5.645,18.2,18.2,0,0,1,4.643-15.568A13.363,13.363,0,0,1,39.469,7.8,9.1,9.1,0,0,1,49.3,12.809a15.769,15.769,0,0,1,1.274,3.459,194.862,194.862,0,0,0,7.283,22.4c0,.091,0,.182.183.364a4.012,4.012,0,0,0,.182-.91c.91-7.375,1.73-14.749,2.64-22.123A18.486,18.486,0,0,1,74.612.427,13.825,13.825,0,0,1,80.074.154,9.12,9.12,0,0,1,87.9,7.073a15.711,15.711,0,0,1,.364,6.191c-.364,5.553-.819,11.016-1.092,16.57-.182,3.732-.182,7.374-.182,11.016,0,.365.091.819.091,1.184h.182c.819-1.639,1.73-3.187,2.458-4.825,2-4.279,3.824-8.649,5.827-12.928A14.163,14.163,0,0,1,105.293,16c4.825-1.183,8.649,1.366,10.105,6.555a7.978,7.978,0,0,1-.091,3.278c-.546,3-1.183,6.1-1.821,9.1-1.821,8.194-3.641,16.388-5.28,24.582a57.035,57.035,0,0,0-1.366,13.657c.091,2.549.364,5.189.364,7.738a57.279,57.279,0,0,1-5.644,25.128,46.264,46.264,0,0,1-11.289,14.84,4.493,4.493,0,0,0-.728.637c.182.364.273.819.455,1.183a8.079,8.079,0,0,1-2.094,8.649A20.74,20.74,0,0,1,76.614,136.9a54.118,54.118,0,0,1-8.581.684A55.765,55.765,0,0,1,54.491,135.9Zm-8.285-10.834a7.315,7.315,0,0,0,1.73,2.914,15.71,15.71,0,0,0,8.1,4.552,51.715,51.715,0,0,0,16.3,1.184c1.73-.183,3.55-.456,5.371-.819a15.788,15.788,0,0,0,7.648-4.371,3.989,3.989,0,0,0,1-4.734c-.819.364-1.639.728-2.458,1a22.4,22.4,0,0,1-2.64.819,60.84,60.84,0,0,1-25.947.273,18.575,18.575,0,0,1-6.009-2.276c-.91-.546-1.912-1.092-2.914-1.639A4.1,4.1,0,0,0,46.206,125.064ZM10.062,80.818A23.538,23.538,0,0,0,3.871,89.74,2.951,2.951,0,0,0,4.6,93.108a14.973,14.973,0,0,0,5.554,3.278,62.534,62.534,0,0,0,14.111,3.369,9.93,9.93,0,0,1,5.372,2.367c1.821,1.548,3.55,3.187,5.28,4.825,3.369,3.277,6.646,6.646,10.288,9.56a28.485,28.485,0,0,0,15.386,6.555,66.708,66.708,0,0,0,13.474.091,36.1,36.1,0,0,0,7.465-1.457,11.469,11.469,0,0,0,4.1-2A43.241,43.241,0,0,0,98.1,104.4a54.09,54.09,0,0,0,5.281-23.58c0-2.549-.274-5.189-.365-7.738a65.4,65.4,0,0,1,1.457-14.567c1.73-8.467,3.551-16.843,5.372-25.219.637-2.822,1.183-5.645,1.73-8.467a4.955,4.955,0,0,0,0-2c-.91-2.822-2.823-4.1-5.736-3.187a10.524,10.524,0,0,0-7.011,6.282,157.723,157.723,0,0,1-10.2,20.849,8.394,8.394,0,0,0-1.092,5.1c.364,4.37.728,8.831,1.092,13.2a5.594,5.594,0,0,1,.091,1.274,7.882,7.882,0,0,1-1-1.639,51.009,51.009,0,0,1-4.1-16.388,126.08,126.08,0,0,1-.274-16.57c.274-6.373.819-12.655,1.275-19.028a14.262,14.262,0,0,0-.273-4.825,5.629,5.629,0,0,0-4.825-4.279,7.16,7.16,0,0,0-4.1.547A15.124,15.124,0,0,0,64.415,16.906c-.364,3.1-.728,6.282-1.092,9.469-.637,6.555-1.366,13.2-2,19.756a12.921,12.921,0,0,0,.455,4.916c1.275,4.37,2.458,8.74,3.733,13.11.182.546.364,1.092.546,1.73a.7.7,0,0,0-.273-.091c-.182-.274-.365-.456-.546-.728a55.283,55.283,0,0,1-6.919-13.93C57.04,47.4,55.766,43.672,54.4,40.03c-2.822-7.647-5.736-15.386-7.556-23.4a8.237,8.237,0,0,0-1-2.458,5.432,5.432,0,0,0-5.281-2.732,7.266,7.266,0,0,0-3.824,1.184,13.142,13.142,0,0,0-6.19,8.194,17.087,17.087,0,0,0,0,8.831c1.274,4.916,2.64,9.742,3.915,14.566,2.549,9.469,4.916,19.029,5.918,28.861.364,4.006.455,8.1.728,12.2a2.079,2.079,0,0,1-1,2.275c-1,.456-1.73-.091-2.458-.637a6.324,6.324,0,0,0-.911-.728,56.974,56.974,0,0,0-8.376-5.372A25.552,25.552,0,0,0,19.439,78q-.637-.05-1.261-.051A12.3,12.3,0,0,0,10.062,80.818Zm47.8,35.689A104.4,104.4,0,0,0,56.4,102.394a3.733,3.733,0,0,1-.091-1c.183-1.365,1.639-2,3-1.092a2.445,2.445,0,0,1,.547,1.092,92.364,92.364,0,0,1,1.548,15.023,1.791,1.791,0,0,1-1.731,2.094A1.822,1.822,0,0,1,57.86,116.507Zm11.562,1a1.744,1.744,0,0,1-1.548-1.548v-.637A177.3,177.3,0,0,0,68.6,94.474a6.9,6.9,0,0,1,.091-1.366c.274-1.366,1.731-1.912,3.1-.91a7.836,7.836,0,0,1,.456,1.366,14.645,14.645,0,0,1-.091,2.822,158.273,158.273,0,0,1-.638,18.573,5.373,5.373,0,0,1-.182,1.274,1.711,1.711,0,0,1-1.715,1.285Q69.522,117.518,69.422,117.508Zm8.1-1a1.754,1.754,0,0,1-1.274-1.822c.091-.364.182-.728.273-1A62.893,62.893,0,0,0,79.983,100.3q.137-.683.274-1.366a1.965,1.965,0,0,1,2.093-1.73,1.772,1.772,0,0,1,1.457,2.276c-.455,2.549-.819,5.189-1.457,7.738-.638,2.732-1.639,5.281-2.458,7.921a2.183,2.183,0,0,1-.273.637,1.929,1.929,0,0,1-1.525.832A1.62,1.62,0,0,1,77.525,116.507Z" transform="translate(0 0)"/>
    </g>
  </g>
</svg>
